<mxfile host="app.diagrams.net" modified="2024-05-10T15:18:06.833Z" agent="Mozilla/5.0 (X11; Linux x86_64; rv:109.0) Gecko/20100101 Firefox/115.0" version="24.3.1" etag="03gm6SFHdd8uHfSbC1C6" type="github">
  <diagram name="Page-1" id="6EogjgM_pls-TQSy0vWQ">
    <mxGraphModel>
      <root>
        <mxCell id="0" />
        <mxCell id="1" parent="0" />
      </root>
    </mxGraphModel>
  </diagram>
</mxfile>
